HIERARCHY
ROOT hip
{
	OFFSET 0.000000 0.000000 0.000000 
	CHANNELS 6 Xposition Yposition Zposition Xrotation Zrotation Yrotation
	JOINT abdomen
	{
		OFFSET 0.000000 3.402643 0.000000 
		CHANNELS 3 Xrotation Zrotation Yrotation
		JOINT chest
		{
			OFFSET 0.000000 8.438565 -0.680529 
			CHANNELS 3 Xrotation Zrotation Yrotation
			JOINT neck
			{
				OFFSET 0.000000 10.207942 -0.272212 
				CHANNELS 3 Xrotation Zrotation Yrotation
				JOINT head
				{
					OFFSET 0.000000 3.130431 0.000000 
					CHANNELS 3 Xrotation Zrotation Yrotation
					End Site
					{
						OFFSET 0.000000 3.130435 0.000000 
					}
				}
			}
			JOINT lCollar
			{
				OFFSET 3.470700 6.669187 -0.816635 
				CHANNELS 3 Yrotation Zrotation Xrotation
				JOINT lShldr
				{
					OFFSET 3.198488 0.000000 0.000000 
					CHANNELS 3 Zrotation Yrotation Xrotation
					JOINT lForeArm
					{
						OFFSET 10.139888 0.000000 0.000000 
						CHANNELS 3 Yrotation Zrotation Xrotation
						JOINT lHand
						{
							OFFSET 8.370511 0.000000 0.000000 
							CHANNELS 3 Zrotation Yrotation Xrotation
							End Site
							{
								OFFSET 4.083176 0.000000 0.000000 
							}
						}
					}
				}
			}
			JOINT rCollar
			{
				OFFSET -3.470700 6.669187 -0.816635 
				CHANNELS 3 Yrotation Zrotation Xrotation
				JOINT rShldr
				{
					OFFSET -3.198488 0.000000 0.000000 
					CHANNELS 3 Zrotation Yrotation Xrotation
					JOINT rForeArm
					{
						OFFSET -10.139888 0.000000 0.000000 
						CHANNELS 3 Yrotation Zrotation Xrotation
						JOINT rHand
						{
							OFFSET -8.370511 0.000000 0.000000 
							CHANNELS 3 Zrotation Yrotation Xrotation
							End Site
							{
								OFFSET -4.083176 0.000000 0.000000 
							}
						}
					}
				}
			}
		}
	}
	JOINT lThigh
	{
		OFFSET 5.308129 -1.633274 1.361059 
		CHANNELS 3 Xrotation Zrotation Yrotation
		JOINT lShin
		{
			OFFSET -2.041588 -20.007561 0.000000 
			CHANNELS 3 Xrotation Zrotation Yrotation
			JOINT lFoot
			{
				OFFSET 0.000000 -19.190928 -1.224953 
				CHANNELS 3 Xrotation Yrotation Zrotation
				End Site
				{
					OFFSET 0.000000 -2.449906 4.627600 
				}
			}
		}
	}
	JOINT rThigh
	{
		OFFSET -5.308129 -1.633274 1.361059 
		CHANNELS 3 Xrotation Zrotation Yrotation
		JOINT rShin
		{
			OFFSET 2.041588 -20.007561 0.000000 
			CHANNELS 3 Xrotation Zrotation Yrotation
			JOINT rFoot
			{
				OFFSET 0.000000 -19.190928 -1.224953 
				CHANNELS 3 Xrotation Yrotation Zrotation
				End Site
				{
					OFFSET 0.000000 -2.449906 4.627600 
				}
			}
		}
	}
}
MOTION
Frames: 11
Frame Time: 0.011111
5.950313 58.503769 6.326852 10.119113 1.252856 -8.566317 3.278795 9.259041 -5.586064 -32.891659 7.404222 -2.572542 -4.448793 2.761387 7.798168 -16.407696 -0.325012 16.454639 -8.555320 -1.799056 -0.578414 1.773749 -21.063971 -13.219565 -70.580658 9.084227 17.366119 8.524705 12.647240 -74.563858 11.262407 1.069142 -1.081854 -13.192576 4.279560 -38.214634 53.279083 -8.386025 9.507773 -8.534408 -12.637552 65.980331 0.554738 0.439072 -16.469324 18.844839 -5.822576 -3.357827 27.933161 12.513373 -6.298043 -20.760548 1.132508 21.509693 28.744606 5.393242 4.689207 17.874258 -5.877561 3.393239 
5.974531 58.517372 6.350739 10.147573 1.191650 -8.587335 3.275408 9.362960 -5.578149 -32.962013 7.507689 -2.594997 -4.085425 2.543936 7.944490 -17.436701 -0.164505 16.691074 -8.555320 -1.799056 -0.578414 1.677826 -20.905943 -13.522198 -70.674362 9.071193 17.417011 8.524705 12.647240 -74.612686 11.262407 1.069142 -1.081854 -13.119771 4.372239 -38.550453 53.227474 -8.380507 9.485570 -8.534408 -12.637552 65.911964 0.517754 0.487348 -16.650206 18.824457 -5.822331 -3.356031 28.181623 12.762335 -6.442803 -20.757456 1.179356 21.639748 28.713493 5.402788 4.679119 17.903105 -5.841089 3.392103 
5.988133 58.508743 6.343440 10.206946 0.906104 -8.549859 3.387892 9.683815 -5.559503 -33.200035 7.622856 -2.642235 -3.929446 2.592297 7.981354 -17.862167 -0.479107 16.826067 -8.555320 -1.799056 -0.578414 1.547660 -20.649670 -13.658307 -70.864639 9.048655 17.506374 8.524705 12.647240 -74.573616 11.262407 1.069142 -1.081854 -13.097472 4.419595 -38.739868 53.099915 -8.352247 9.434643 -8.534408 -12.637552 65.990089 0.320240 0.829249 -16.607330 18.946468 -5.823559 -3.377490 27.995501 13.220016 -6.679266 -20.657093 1.460873 21.640276 28.584284 5.402500 4.667692 18.287621 -5.862060 3.372622 
5.997423 58.495476 6.329838 10.304924 0.618404 -8.523907 3.448922 9.966990 -5.479061 -33.318642 7.647769 -2.651994 -3.997772 2.797026 7.966553 -18.122679 -0.916920 16.917717 -8.555320 -1.799056 -0.578414 1.503694 -20.590292 -13.890182 -71.009644 9.026264 17.582830 8.524705 12.647240 -74.622444 11.262407 1.069142 -1.081854 -12.941294 4.359494 -38.929813 52.953354 -8.327484 9.370692 -8.534408 -12.637552 66.126808 0.075803 1.170503 -16.493576 19.051399 -5.813091 -3.394393 27.875994 12.811497 -6.458696 -20.621418 1.765324 21.681206 28.472553 5.417984 4.651169 18.668577 -6.252836 3.495308 
6.012351 58.523010 6.335147 10.431781 0.463341 -8.494990 3.406802 10.128174 -5.397120 -33.346756 7.550947 -2.633174 -4.362043 2.905981 8.042850 -17.999393 -0.839741 17.069092 -8.555320 -1.799056 -0.578414 1.598244 -20.826380 -14.339507 -70.957985 9.034623 17.557407 8.524705 12.647240 -74.905655 11.262407 1.069142 -1.081854 -12.651660 4.182424 -39.169186 52.858414 -8.308230 9.328964 -8.534408 -12.637552 66.224472 -0.186723 1.355516 -16.544889 19.184389 -5.812253 -3.406639 28.112663 12.311946 -6.211984 -20.728704 1.941421 21.715126 28.362679 5.422531 4.632886 18.869879 -6.705489 3.629833 
6.033914 58.563488 6.352397 10.541179 0.438576 -8.382515 3.328539 10.122087 -5.418568 -33.444569 7.507749 -2.640720 -4.657094 3.038271 8.156345 -17.868986 -0.670157 17.276886 -8.555320 -1.799056 -0.578414 1.685025 -20.993980 -14.702392 -70.926331 9.038695 17.542826 8.524705 12.647240 -75.169327 11.262407 1.069142 -1.081854 -12.382533 3.840686 -38.997238 52.942429 -8.324459 9.370992 -8.534408 -12.637552 66.722511 -0.412584 1.412544 -16.664360 19.285870 -5.813203 -3.425307 28.144583 12.821945 -6.472523 -20.852594 1.938946 21.761131 28.251129 5.436584 4.615881 18.968554 -7.404101 3.878126 
6.054816 58.586040 6.366994 10.630958 0.373990 -8.287107 3.294635 10.167963 -5.450374 -33.603367 7.587559 -2.673248 -4.423652 3.222359 8.204096 -18.567392 -0.951687 17.469627 -8.555320 -1.799056 -0.578414 1.668808 -20.905779 -14.861539 -71.011200 9.028807 17.582201 8.524705 12.647240 -75.218155 11.262407 1.069142 -1.081854 -12.213740 3.682279 -38.879349 52.920948 -8.317163 9.352103 -8.534408 -12.637552 66.908058 -0.575907 1.542971 -16.735622 19.293652 -5.819506 -3.446606 27.919958 13.360669 -6.781899 -20.917030 2.001494 21.698170 28.203892 5.422140 4.609098 19.162268 -7.913305 4.042930 
6.070076 58.596989 6.379269 10.700351 0.284791 -8.235831 3.330141 10.222010 -5.442080 -33.753105 7.707746 -2.702047 -4.269497 3.414117 8.201764 -18.977516 -1.419462 17.599705 -8.555320 -1.799056 -0.578414 1.607666 -20.807013 -14.953290 -71.105927 9.016788 17.632689 8.524705 12.647240 -75.130264 11.262407 1.069142 -1.081854 -12.114805 3.607025 -38.549896 52.774216 -8.292466 9.298169 -8.534408 -12.637552 67.210793 -0.665066 1.637932 -16.872969 19.326607 -5.813451 -3.429854 27.870876 13.217961 -6.677113 -20.945829 2.089505 21.605343 28.213518 5.422146 4.619681 19.301048 -8.184501 4.114737 
6.081686 58.612255 6.388227 10.778623 0.424811 -8.181092 3.295722 9.969160 -5.498858 -33.814407 7.833400 -2.708537 -4.287737 3.428946 8.229603 -19.296761 -1.441769 17.657225 -8.555320 -1.799056 -0.578414 1.615492 -20.865755 -15.215515 -71.179001 9.006288 17.669918 8.524705 12.647240 -75.140022 11.262407 1.069142 -1.081854 -11.886539 3.483961 -38.346077 52.668545 -8.269129 9.247217 -8.534408 -12.637552 67.620956 -0.685605 1.518314 -16.984924 19.268433 -5.803900 -3.413398 28.005098 12.877632 -6.499979 -21.131554 1.972662 21.602745 28.294817 5.414140 4.615089 19.352982 -8.558024 4.260050 
6.089981 58.637463 6.383250 10.915075 0.620910 -8.116157 3.201154 9.672462 -5.597336 -33.786911 7.952159 -2.711397 -4.226935 3.219295 8.295789 -20.139883 -1.082588 17.714855 -8.555320 -1.799056 -0.578414 1.686037 -20.945162 -15.659421 -71.272041 8.990510 17.711357 8.524705 12.647240 -75.364632 11.262407 1.069142 -1.081854 -11.623331 3.456663 -38.645638 52.553093 -8.248354 9.204422 -8.534408 -12.637552 67.738144 -0.851281 1.392567 -17.008850 19.173912 -5.812130 -3.415465 28.047834 12.998013 -6.577446 -21.443293 1.874400 21.721588 28.392502 5.422661 4.635539 19.486900 -8.776869 4.343383 
6.098606 58.653053 6.373962 11.043610 0.706393 -8.002110 3.184872 9.502717 -5.667414 -33.838528 8.085159 -2.738910 -4.272407 3.094652 8.362937 -20.802008 -0.937268 17.789812 -8.555320 -1.799056 -0.578414 1.729698 -21.014326 -16.062342 -71.325027 8.984035 17.736254 8.524705 12.647240 -75.569710 11.262407 1.069142 -1.081854 -11.475927 3.251233 -38.445751 52.542358 -8.244609 9.195028 -8.534408 -12.637552 68.421738 -1.025768 1.393347 -17.006927 19.018183 -5.821909 -3.393074 28.116343 13.325101 -6.755831 -21.718027 1.884930 21.819483 28.534414 5.405213 4.653404 19.722382 -8.744704 4.324496 
